<svg xmlns="http://www.w3.org/2000/svg" viewBox="0 0 48 60" x="0px" y="0px"><defs><style>
      .cls-1 {
        stroke-width: 0px;
      }
    </style></defs><path class="cls-1" d="m13.25098,16.75098c-.30859.45801-.18799,1.0791.27002,1.3877.45703.30762,1.0791.18848,1.38818-.27051,2.04199-3.0293,5.44043-4.83789,9.09082-4.83789,6.04883,0,10.97021,4.9209,10.97021,10.96973s-4.92139,10.96973-10.97021,10.96973-10.97021-4.9209-10.97021-10.96973c0-.64062.05518-1.27441.16455-1.88281.09717-.54395-.26416-1.06348-.80811-1.16113-.54346-.09961-1.06299.26465-1.16064.80762-.12988.72559-.1958,1.47754-.1958,2.23633,0,7.15137,5.81836,12.96973,12.97021,12.96973s12.97021-5.81836,12.97021-12.96973-5.81836-12.96973-12.97021-12.96973c-4.31641,0-8.33447,2.13867-10.74902,5.7207Z"/><path class="cls-1" d="m25,7.33301v-2.33301c0-.55273-.44775-1-1-1s-1,.44727-1,1v2.33301c0,.55273.44775,1,1,1s1-.44727,1-1Z"/><path class="cls-1" d="m11.27197,9.8584c-.39062-.39062-1.02344-.39062-1.41406,0s-.39062,1.02344,0,1.41406l1.64941,1.64941c.19531.19531.45117.29297.70703.29297s.51172-.09766.70703-.29297c.39062-.39062.39062-1.02344,0-1.41406l-1.64941-1.64941Z"/><path class="cls-1" d="m5,25h2.33252c.55225,0,1-.44727,1-1s-.44775-1-1-1h-2.33252c-.55225,0-1,.44727-1,1s.44775,1,1,1Z"/><path class="cls-1" d="m9.85791,38.1416c.19531.19531.45117.29297.70703.29297s.51172-.09766.70703-.29297l1.64941-1.64941c.39062-.39062.39062-1.02344,0-1.41406s-1.02344-.39062-1.41406,0l-1.64941,1.64941c-.39062.39062-.39062,1.02344,0,1.41406Z"/><path class="cls-1" d="m25,43v-2.33301c0-.55273-.44775-1-1-1s-1,.44727-1,1v2.33301c0,.55273.44775,1,1,1s1-.44727,1-1Z"/><path class="cls-1" d="m37.43506,38.43457c.25586,0,.51172-.09766.70703-.29297.39062-.39062.39062-1.02344,0-1.41406l-1.64941-1.64941c-.39062-.39062-1.02344-.39062-1.41406,0s-.39062,1.02344,0,1.41406l1.64941,1.64941c.19531.19531.45117.29297.70703.29297Z"/><path class="cls-1" d="m43,23h-2.33252c-.55225,0-1,.44727-1,1s.44775,1,1,1h2.33252c.55225,0,1-.44727,1-1s-.44775-1-1-1Z"/><path class="cls-1" d="m36.72803,9.8584l-1.64941,1.64941c-.39062.39062-.39062,1.02344,0,1.41406.19531.19531.45117.29297.70703.29297s.51172-.09766.70703-.29297l1.64941-1.64941c.39062-.39062.39062-1.02344,0-1.41406s-1.02344-.39062-1.41406,0Z"/><text x="0" y="63" fill="#000000" font-size="5px" font-weight="bold" font-family="'Helvetica Neue', Helvetica, Arial-Unicode, Arial, Sans-serif">Created by Selot Lo</text><text x="0" y="68" fill="#000000" font-size="5px" font-weight="bold" font-family="'Helvetica Neue', Helvetica, Arial-Unicode, Arial, Sans-serif">from the Noun Project</text></svg>