<svg xmlns="http://www.w3.org/2000/svg" xmlns:xlink="http://www.w3.org/1999/xlink" version="1.1" x="0px" y="0px" viewBox="0 0 100 125" enable-background="new 0 0 100 100" xml:space="preserve"><path d="M72.011,25.436c-0.15-5.442-1.785-10.762-5.847-14.559c-3.48-3.253-8.072-5.246-12.834-5.532  c-5.002-0.301-9.953,1.373-14.026,4.22c-9.16,6.404-12.596,18.046-10.921,28.774c0.513,3.283,1.491,6.482,2.813,9.536  c0.017,0.395,0.193,0.766,0.461,1.028c1.086,2.343,2.37,4.595,3.806,6.722c0.417,0.618,0.849,1.241,1.298,1.862  c0.092,0.324,0.309,0.613,0.595,0.808c2.807,3.733,6.263,7.218,10.787,8.467c0.014,0.28,0.144,0.567,0.432,0.823  c0.008,0.007,0.015,0.014,0.023,0.02c-0.556,0.606-1.112,1.209-1.668,1.809c-0.859,0.928-0.376,2.252,0.86,2.442  c2.022,0.31,4.062,0.18,6.032-0.369c0.909-0.253,1.591-1.553,0.744-2.305c-0.671-0.596-1.342-1.192-2.013-1.787  c6.459-7.198,12.531-14.858,16.115-23.915C70.913,37.809,72.179,31.546,72.011,25.436z M50.738,65.247  c-0.012-0.094-0.036-0.185-0.07-0.272c0.002-0.002,0.005-0.004,0.007-0.006c0.465-0.408,0.93-0.816,1.395-1.224  C51.628,64.248,51.184,64.749,50.738,65.247z M40.185,57.378c0.942-0.715,1.885-1.43,2.827-2.145  c2.438-1.449,4.876-2.897,7.313-4.346c-3.033,2.583-6.037,5.191-8.78,8.04c-0.011,0.011-0.02,0.023-0.03,0.034  C41.055,58.449,40.613,57.918,40.185,57.378z M65.652,14.48c-0.015,0.011-0.03,0.021-0.044,0.033  c-1.923,1.555-3.846,3.111-5.769,4.666c1.842-1.685,3.687-3.366,5.538-5.041C65.471,14.251,65.562,14.365,65.652,14.48z   M68.304,19.626c-0.317-0.117-0.688-0.11-1.074,0.092c-1.152,0.601-2.3,1.21-3.448,1.819c1.238-1.444,2.399-2.952,3.469-4.525  C67.673,17.85,68.022,18.724,68.304,19.626z M32.892,44.574c1.94-1.569,3.88-3.139,5.821-4.708c-1.945,1.69-3.827,3.442-5.602,5.301  C33.036,44.97,32.964,44.772,32.892,44.574z M49.436,58.374c-0.244,0.106-0.487,0.212-0.731,0.317c0.922-1.134,1.932-2.19,2.994-3.2  c1.365-0.861,2.743-1.702,4.129-2.53C53.721,54.793,51.589,56.596,49.436,58.374z M65.192,44.527  c-0.624,0.324-1.243,0.656-1.863,0.986c0.952-0.932,1.856-1.909,2.691-2.95C65.758,43.225,65.482,43.88,65.192,44.527z   M67.719,32.981c-0.501,0.381-1.003,0.761-1.504,1.142c1.019-1.193,1.983-2.44,2.883-3.749c-0.083,0.772-0.19,1.542-0.317,2.305  C68.431,32.641,68.056,32.725,67.719,32.981z M69.3,26.758c-0.415-0.14-0.896-0.083-1.314,0.292  c-4.862,4.364-10.143,8.217-15.525,11.909c5.559-5.257,11.095-10.539,16.608-15.846C69.23,24.307,69.302,25.528,69.3,26.758z   M46.973,14.604c-2.531,2.377-4.996,4.822-7.394,7.333c-0.063,0.049-0.125,0.1-0.188,0.149c1.92-2.286,3.93-4.493,6.026-6.619  C45.932,15.174,46.451,14.887,46.973,14.604z M41.389,24.075c2.135-1.667,4.322-3.267,6.55-4.81c-1.16,1.154-2.31,2.319-3.45,3.493  c-1.69,1.118-3.372,2.248-5.047,3.388C40.085,25.45,40.735,24.761,41.389,24.075z M54.135,11.902  c0.691-0.601,1.384-1.199,2.084-1.791c0.498-0.421,0.58-0.952,0.412-1.408c0.634,0.169,1.258,0.371,1.87,0.609  C57.034,10.155,55.579,11.02,54.135,11.902z M52.796,8.62c0.184-0.156,0.368-0.314,0.553-0.469c0.149,0.011,0.298,0.02,0.447,0.035  C53.462,8.329,53.129,8.473,52.796,8.62z M32.058,24.235c0.286-0.003,0.583-0.098,0.861-0.321c1.16-0.926,2.343-1.821,3.543-2.69  c-1.86,2.264-3.634,4.599-5.317,6.999C31.354,26.87,31.657,25.536,32.058,24.235z M34.043,19.533  c0.065-0.118,0.13-0.236,0.197-0.353c0.011,0.06,0.026,0.119,0.043,0.177C34.203,19.416,34.122,19.474,34.043,19.533z   M30.844,34.819c0.409,0.089,0.855,0.038,1.219-0.215c1.303-0.904,2.607-1.808,3.913-2.709c-1.095,1.226-2.181,2.46-3.257,3.704  c-0.012,0.013-0.024,0.026-0.035,0.039c0,0,0.001,0.001,0.001,0.001c-0.078,0.09-0.157,0.18-0.235,0.27  c-0.592,0.686-0.157,1.574,0.52,1.98c-0.521,0.505-1.034,1.019-1.529,1.549C31.136,37.92,30.935,36.373,30.844,34.819z   M53.125,33.207C47.23,38.879,41.335,44.55,35.44,50.222c-0.377-0.697-0.736-1.404-1.075-2.12  C40.361,42.815,46.621,37.841,53.125,33.207z M50.254,43.999c-2.132,1.994-4.266,3.985-6.404,5.973  c-1.716,1.443-3.388,2.928-4.973,4.493c-0.111,0.11-0.197,0.231-0.262,0.359c-0.066,0.061-0.132,0.122-0.198,0.183  c-0.403-0.571-0.795-1.151-1.175-1.741C41.269,49.761,45.74,46.85,50.254,43.999z M44.007,60.605  c-0.091,0.163-0.184,0.323-0.271,0.489c-0.007,0.013-0.011,0.027-0.017,0.04c-0.071-0.061-0.141-0.122-0.211-0.183  C43.673,60.834,43.841,60.722,44.007,60.605z M47.809,63.279c0.734-0.504,1.475-0.996,2.224-1.475  c-0.41,0.36-0.82,0.719-1.229,1.079c-0.34,0.298-0.477,0.652-0.471,0.997c-0.341-0.12-0.674-0.254-1-0.401  C47.49,63.451,47.65,63.388,47.809,63.279z M59.514,54.388c-0.312-0.102-0.668-0.101-1.025,0.054  c-0.066,0.029-0.132,0.058-0.199,0.086c0.929-0.812,1.854-1.629,2.774-2.451C60.563,52.857,60.045,53.627,59.514,54.388z   M67.332,38.797c-0.065-0.074-0.136-0.142-0.213-0.202c0.149-0.189,0.295-0.381,0.442-0.572  C67.487,38.283,67.41,38.542,67.332,38.797z M63.236,12.029c-0.163,0.101-0.326,0.203-0.488,0.304  c-0.357-0.203-0.802-0.243-1.257,0.009c-1.975,1.092-3.927,2.22-5.862,3.376c1.485-1.396,2.984-2.779,4.498-4.144  c0.414-0.373,0.509-0.876,0.397-1.331c0.747,0.4,1.466,0.85,2.149,1.35C62.865,11.735,63.052,11.881,63.236,12.029z M38.457,13.839  c1.3-1.211,2.743-2.27,4.29-3.142c-2.247,1.573-4.359,3.34-6.302,5.283C37.062,15.231,37.731,14.515,38.457,13.839z"/><g><path d="M51.28,95c-0.694,0-1.311-0.496-1.439-1.203c-0.662-3.655,1.769-6.947,4.264-8.808c0.193-0.144,0.391-0.286,0.591-0.429   c0.864-0.618,1.681-1.203,1.96-1.928c0.355-0.924-0.212-2.057-0.89-2.718c-0.898-0.876-2.165-1.403-3.608-1.954   c-0.841-0.321-1.887-0.72-2.685-1.57c-1.106-1.178-1.457-2.983-0.894-4.597c0.473-1.358,1.558-2.524,2.978-3.2   c0.732-0.347,1.604-0.037,1.951,0.693c0.347,0.73,0.037,1.604-0.693,1.951c-0.707,0.337-1.257,0.905-1.471,1.519   c-0.202,0.579-0.093,1.25,0.264,1.63c0.336,0.358,0.947,0.591,1.594,0.838c1.688,0.644,3.31,1.327,4.608,2.593   c1.667,1.627,2.302,3.983,1.578,5.865c-0.594,1.544-1.866,2.455-2.989,3.258c-0.184,0.131-0.366,0.262-0.544,0.395   c-1.711,1.276-3.558,3.597-3.134,5.939c0.144,0.796-0.384,1.558-1.179,1.702C51.455,94.992,51.367,95,51.28,95z"/></g><text x="0" y="115" fill="#000000" font-size="5px" font-weight="bold" font-family="'Helvetica Neue', Helvetica, Arial-Unicode, Arial, Sans-serif">Created by Ale Estrada</text><text x="0" y="120" fill="#000000" font-size="5px" font-weight="bold" font-family="'Helvetica Neue', Helvetica, Arial-Unicode, Arial, Sans-serif">from the Noun Project</text></svg>