<svg xmlns="http://www.w3.org/2000/svg" xmlns:xlink="http://www.w3.org/1999/xlink" version="1.1" x="0px" y="0px" viewBox="0 0 100 125" enable-background="new 0 0 100 100" xml:space="preserve"><path d="M93.765,6.262C49.907-1.306,13.739,35.751,13.336,77.19c-0.909-1.545-1.812-3.093-2.725-4.636  c-1.411-2.386-5.931-1.578-5.593,1.515c0.697,6.377,4.163,19.635,12.297,20.612c2.875,0.346,4.711-1.331,6.593-3.206  c4.643-4.625,8.976-10.14,12.708-15.526c1.706-2.464-1.992-5.081-4.041-3.118c-4.092,3.919-7.452,10.158-11.944,13.417  c-0.248,0.181-0.49,0.326-0.728,0.456c-2.926-20.05,3.17-41.142,17.24-55.937C51.837,15.314,72.375,8.87,93.307,9.649  C95.211,9.72,95.707,6.597,93.765,6.262z"/><text x="0" y="115" fill="#000000" font-size="5px" font-weight="bold" font-family="'Helvetica Neue', Helvetica, Arial-Unicode, Arial, Sans-serif">Created by Alena Artemova</text><text x="0" y="120" fill="#000000" font-size="5px" font-weight="bold" font-family="'Helvetica Neue', Helvetica, Arial-Unicode, Arial, Sans-serif">from the Noun Project</text></svg>