<svg xmlns="http://www.w3.org/2000/svg" xmlns:xlink="http://www.w3.org/1999/xlink" version="1.1" x="0px" y="0px" viewBox="0 0 100 125" enable-background="new 0 0 100 100" xml:space="preserve"><path d="M85.5058594,58.3652344l-1.7075195-1.7080078v-1.9765625L98.1875,65.4228516L83.9853516,51.625l-6.6513672,2.7011719  L65.9208984,41.1914063l-4.6987305,2.7744141L50.0102539,31.1201172L36.625,45.0585938l-5.6772461-1.2626953L17.605957,54.9882813  l-6.2006836-0.2158203L1.8125,66.4326172l10.5068359-9.0644531l5.7182617,0.1962891l0,0L23.8164063,58.125h4.5087891  l1.4677734,2.3212891l6.6171875,1.6005859c0,0-2.668457-4.2695313-3.2016602-4.4824219  c-0.5336914-0.2138672-1.1811523-3.4238281-1.1811523-3.4238281l1.1811523-1.4853516c0,0-1.2807617-2.3486328-1.1743164-2.6689453  c0.0727539-0.2177734,0.0458984-2.1289063,0.0219727-3.3183594l5.2456055,1.1660156l4.6586914,4.8232422l-1.7080078,3.4150391  l7.1147461,5.5498047l6.6894531,4.8105469l7.96875,2.4472656L55.90625,64.7519531l-1.2807617-2.5615234l-8.5385742-9.9599609  l2.6679688-4.4140625l-1.2446289-4.2871094L50,41.5566406v-6.5527344l9.8911133,11.3320313v5.0400391l1.8496094,3.2724609v2.5615234  l6.5458984,5.6923828l7.5419922,1.8496094l-3.8422852-1.8496094l-7.8798828-12.2216797l1.2275391-0.6943359l-0.4267578-3.0419922  l0.2939453-2.3525391l0.1860352-0.109375l11.2138672,12.9052734l2.6079102,1.8837891l1.5473633,1.3886719l5.9238281,1.8134766  l-2.8818359-2.3476563L85.5058594,58.3652344z"/><text x="0" y="115" fill="#000000" font-size="5px" font-weight="bold" font-family="'Helvetica Neue', Helvetica, Arial-Unicode, Arial, Sans-serif">Created by nur fitri komariya</text><text x="0" y="120" fill="#000000" font-size="5px" font-weight="bold" font-family="'Helvetica Neue', Helvetica, Arial-Unicode, Arial, Sans-serif">from the Noun Project</text></svg>